<?xml version="1.0" standalone="no"?>
<!DOCTYPE svg PUBLIC "-//W3C//DTD SVG 20010904//EN"
 "http://www.w3.org/TR/2001/REC-SVG-20010904/DTD/svg10.dtd">
<svg version="1.0" xmlns="http://www.w3.org/2000/svg"
 width="420.000000pt" height="227.000000pt" viewBox="0 0 420.000000 227.000000"
 preserveAspectRatio="xMidYMid meet">

<g transform="translate(0.000000,227.000000) scale(0.100000,-0.100000)"
fill="#000000" stroke="none">
<path d="M885 1995 c-381 -60 -724 -251 -785 -439 -17 -52 -8 -140 16 -173 45
-59 67 -68 178 -68 95 0 106 2 168 33 66 32 113 76 102 93 -9 15 -61 10 -114
-11 -60 -24 -70 -25 -70 -6 0 60 254 163 560 227 112 23 182 32 306 36 194 7
234 -2 234 -49 0 -70 -74 -138 -232 -213 -122 -57 -308 -112 -308 -90 0 3 27
39 60 81 124 156 141 192 99 215 -15 8 -28 8 -44 1 -13 -6 -83 -83 -155 -171
l-133 -161 -93 0 c-81 0 -97 -3 -114 -20 -25 -25 -25 -41 -2 -71 12 -14 34
-24 62 -28 l44 -6 -147 -177 c-146 -175 -164 -207 -135 -236 28 -28 65 -14
110 42 24 29 105 127 181 218 l138 165 81 12 c98 15 227 52 325 92 209 88 373
258 373 390 0 159 -111 273 -305 314 -85 18 -288 18 -400 0z"/>
<path d="M1983 1892 c-66 -36 -197 -148 -330 -285 -381 -392 -564 -690 -499
-815 34 -65 77 -51 226 73 146 122 276 213 288 201 2 -2 -20 -36 -49 -76 -86
-117 -93 -195 -25 -256 l35 -31 -67 -12 c-219 -40 -543 -131 -647 -183 -117
-58 -122 -81 -38 -158 52 -47 58 -51 68 -34 42 75 238 166 580 269 144 44 415
110 505 124 189 29 229 33 246 23 16 -9 16 -10 -2 -19 -10 -6 -57 -20 -104
-33 -158 -41 -330 -101 -356 -124 -23 -19 -25 -26 -16 -43 18 -33 114 -105
132 -99 443 158 689 217 905 218 93 1 118 -3 163 -22 59 -26 72 -20 72 32 0
38 -41 50 -195 55 -219 8 -474 -43 -783 -158 -74 -28 -136 -48 -139 -45 -8 7
41 30 233 106 98 40 181 73 182 75 12 11 -15 45 -54 70 l-46 29 28 20 c32 24
129 153 164 219 26 50 27 50 127 60 l41 5 -58 -70 c-73 -86 -88 -124 -65 -167
22 -43 68 -65 106 -52 17 6 100 54 185 107 85 53 156 95 159 93 2 -2 -12 -29
-31 -59 -46 -73 -48 -138 -5 -181 27 -27 35 -29 100 -29 77 0 138 22 185 65
24 22 34 54 20 67 -3 3 -21 1 -40 -5 -74 -23 -57 16 68 150 149 159 164 196
99 240 -60 40 -54 43 -385 -174 -28 -18 -51 -31 -53 -29 -2 2 17 34 43 71 57
82 68 135 34 178 -12 15 -31 27 -43 27 -30 0 -111 -48 -170 -100 -75 -66 -231
-112 -265 -78 -19 19 -14 38 19 69 24 22 29 34 24 51 -12 37 -25 47 -83 64
-47 14 -64 15 -111 4 -171 -38 -353 -212 -377 -359 -6 -37 -13 -46 -66 -82
-32 -22 -75 -47 -94 -55 -71 -30 -51 31 48 141 92 103 148 180 148 203 0 17
-9 27 -35 38 -65 27 -125 14 -273 -58 -46 -22 -85 -38 -89 -35 -8 9 16 44 137
197 161 202 287 378 320 445 26 52 29 65 20 91 -9 27 -55 65 -77 64 -4 -1 -22
-9 -40 -18z m441 -825 c-28 -78 -161 -227 -204 -227 -16 0 -20 6 -20 33 0 58
85 165 184 231 48 32 60 21 40 -37z m-437 -254 c6 -21 10 -40 8 -42 -5 -4
-162 -31 -185 -31 -8 0 9 14 39 30 30 17 68 41 85 55 17 13 33 24 36 25 3 0
10 -17 17 -37z"/>
<path d="M3710 1314 c-167 -44 -349 -200 -397 -339 -14 -43 -14 -50 2 -91 37
-96 117 -109 251 -39 47 25 87 45 90 45 10 0 2 -49 -15 -85 -32 -69 -115 -148
-293 -283 -264 -198 -299 -244 -245 -322 34 -50 47 -55 109 -41 162 36 381
248 551 533 128 214 208 421 176 453 -13 13 -30 2 -134 -81 -120 -95 -215
-151 -234 -139 -23 13 -10 50 32 89 50 48 178 117 291 157 104 37 118 58 71
105 -54 54 -144 67 -255 38z"/>
</g>
</svg>
